<?xml version="1.0" encoding="UTF-8" standalone="no"?>
<svg
   viewBox="0 0 850.39 850.39"
   version="1.1"
   id="svg22"
   sodipodi:docname="icon-chip-black.svg"
   inkscape:version="1.3 (0e150ed6c4, 2023-07-21)"
   xml:space="preserve"
   xmlns:inkscape="http://www.inkscape.org/namespaces/inkscape"
   xmlns:sodipodi="http://sodipodi.sourceforge.net/DTD/sodipodi-0.dtd"
   xmlns="http://www.w3.org/2000/svg"
   xmlns:svg="http://www.w3.org/2000/svg"><defs
     id="defs22" /><sodipodi:namedview
     id="namedview22"
     pagecolor="#ffffff"
     bordercolor="#000000"
     borderopacity="0.25"
     inkscape:showpageshadow="2"
     inkscape:pageopacity="0.0"
     inkscape:pagecheckerboard="0"
     inkscape:deskcolor="#d1d1d1"
     inkscape:zoom="1.4358118"
     inkscape:cx="425.19501"
     inkscape:cy="407.78325"
     inkscape:window-width="2560"
     inkscape:window-height="1417"
     inkscape:window-x="-8"
     inkscape:window-y="-8"
     inkscape:window-maximized="1"
     inkscape:current-layer="layer1" /><path
     d="m 264.61807,94.996926 v 53.684254 h -40.07633 c -66.10533,0 -79.73954,14.60214 -79.73954,83.74746 V 273.2287 H 93.157436 41.512653 v 12.88422 12.88422 H 93.157436 144.8022 v 34.35795 34.3579 H 93.157436 41.512653 v 12.88423 12.88423 H 93.157436 144.8022 v 34.35794 34.35795 H 92.744257 41.099505 l 1.239475,11.59581 1.239474,12.02525 50.818457,1.28842 50.405289,1.28843 v 33.92845 34.35794 H 93.157436 41.512653 v 12.88423 12.88423 H 93.157436 144.8022 v 41.22951 c 0,41.22952 2.47893,51.5369 16.52634,66.13902 14.04736,14.60213 23.96316,17.17898 63.62634,17.17898 h 39.66319 v 53.68424 53.68429 h 12.39475 12.39474 v -53.68429 -53.68424 h 33.05267 32.63948 l 1.23947,52.39583 1.23948,52.82532 11.56842,1.28842 11.15528,1.28843 v -53.68425 -54.11375 h 33.05265 33.05268 v 54.11375 53.68425 l 11.56842,-1.28843 11.15526,-1.28842 1.23947,-52.82532 1.23948,-52.39583 h 32.63949 33.05266 v 53.68424 53.68429 h 12.39475 12.39475 v -53.68429 -53.68424 h 39.66317 c 66.1053,0 80.15271,-15.03161 80.15271,-86.3243 V 582.4501 h 51.64474 51.64479 V 569.56587 556.68164 H 733.55259 681.90785 V 522.3237 488.39525 l 50.81846,-1.28843 50.40527,-1.28842 1.23947,-12.02525 1.23948,-11.59581 h -51.64474 -52.05794 v -34.35795 -34.35794 h 51.64474 51.64479 v -12.88423 -12.88423 h -51.64479 -51.64474 v -34.3579 -34.35795 h 51.64474 51.64479 V 286.11292 273.2287 h -51.64479 -51.64474 v -40.80006 c 0,-69.14532 -13.63423,-83.74746 -79.32638,-83.74746 h -40.4895 V 94.996926 41.312644 H 549.69722 537.30247 V 94.996926 148.68118 H 504.24981 471.19717 V 94.996926 41.312644 H 458.80242 446.40769 V 94.996926 148.68118 H 413.35501 380.30236 V 94.996926 41.312644 H 367.90761 355.51286 V 94.996926 148.68118 H 322.46023 289.40756 V 94.996926 41.312644 h -12.39474 -12.39475 z m 273.09745,75.854434 61.97383,-0.69647 c 35.94249,-0.40393 38.01057,0.42946 49.57897,12.45476 l 11.98161,12.45474 v 232.775 232.77502 l -11.98161,12.45472 -11.98155,12.45476 h -83.04481 -83.04479 -24.78948 -78.50008 -78.50005 l -24.78949,0 h -37.59738 c -35.94476,0 -38.01056,-0.42946 -49.57899,-12.45476 L 165.4601,660.61441 V 479.80576 298.99714 c 4.07215,-17.71638 -0.44312,0.69742 0,-25.76844 v -39.08214 c 0,-37.36425 0.41315,-39.51164 11.9816,-51.53691 l 11.98158,-12.45476 h 173.93961 z"
     id="path1-6"
     style="fill:#000000;stroke:none;stroke-width:0.421237"
     sodipodi:nodetypes="ccsscccccccccccccccccccccccccccccccssscccccccccccccccccccccccccccccccsscccccccccccccccccccccccccccccccsscccccccccccccccccccccccccccccccsscccccccccccssccccssccc" /><g
     inkscape:groupmode="layer"
     id="layer1"
     inkscape:label="Layer 1"><path
       d="m 472.8818,676.50131 v -49.38955 h 51.64476 51.64478 v -38.65267 c 0,-24.05053 1.65262,-38.65268 4.13157,-38.65268 2.47896,0 9.0895,-5.15369 14.46054,-11.1663 23.13688,-26.19794 4.95791,-70.43378 -28.92106,-70.43378 -21.89738,0 -39.25003,18.89687 -39.25003,42.94741 0,15.46106 2.47894,20.1853 14.46054,31.7811 13.22105,12.88422 14.46051,15.89053 14.46051,38.22321 v 24.48002 h -53.71055 -53.71054 v 69.18048"
       style="mix-blend-mode:darken;fill:#514897;fill-opacity:1;stroke:none;stroke-width:0.421237"
       id="path1-61"
       sodipodi:nodetypes="ccccsscsscscccc" /><path
       d="m 177.49189,296.52521 81.39216,0.42946 13.63422,21.04426 c 11.98155,18.03791 13.22103,22.33265 9.08946,30.06318 -11.98159,23.19161 11.15528,60.1264 38.01057,60.1264 17.35264,0 40.48947,-24.48002 40.48947,-42.94745 0,-21.04422 -22.72368,-42.94739 -44.62108,-42.94739 -10.7421,0 -17.35264,-2.14739 -19.00527,-6.44212 -1.23947,-3.4358 -8.26317,-15.0316 -15.70001,-25.76845 l -13.63422,-18.89685 -90.39902,-0.42946"
       style="fill:#514897;fill-opacity:1;stroke:none;stroke-width:0.421237"
       id="path1"
       sodipodi:nodetypes="ccccssscccc" /><path
       d="m 536.30246,187.91703 c 0,21.47369 -0.82633,23.62108 -20.65792,43.80638 -19.41842,20.18526 -22.31053,21.47367 -41.72895,21.47367 -17.76582,0 -22.31055,1.71792 -30.98687,12.0253 -10.74212,12.88423 -13.22107,35.64634 -5.78422,50.67793 7.0237,12.88423 28.09477,22.33266 43.79476,19.32634 19.41844,-3.86526 30.57371,-20.61476 30.57371,-45.09478 0,-18.89686 1.65263,-21.47371 24.78949,-45.52425 18.82529,-12.40712 20.04229,-18.21114 24.7895,-25.33898 v -31.93216"
       style="fill:#514897;stroke:none;stroke-width:0.421237;fill-opacity:1"
       id="path1-5"
       sodipodi:nodetypes="ccscccsccc" /><path
       d="m 287.24057,680.02157 v -30.92214 l 30.98686,-20.18529 30.98686,-20.18529 v -26.19792 c 0,-24.05055 1.23948,-27.05687 14.46054,-41.22952 19.00527,-19.7558 19.8316,-39.51164 2.47896,-57.97901 -31.40005,-32.21055 -83.04479,1.71789 -66.51848,43.80637 2.8921,7.30107 9.50265,15.89053 14.87369,19.32634 7.02371,5.15368 9.50264,11.16634 10.74212,28.34529 l 1.23948,21.47372 -31.81318,21.47369 -32.22634,21.47371 v 36.07584"
       style="fill:#514897;stroke:none;stroke-width:0.421237;fill-opacity:1"
       id="path1-7" /></g></svg>
