<?xml version="1.0" encoding="UTF-8" standalone="no"?>
<svg
   width="1177"
   height="404"
   version="1.1"
   id="svg2"
   sodipodi:docname="logo.svg"
   inkscape:version="1.3 (0e150ed6c4, 2023-07-21)"
   xmlns:inkscape="http://www.inkscape.org/namespaces/inkscape"
   xmlns:sodipodi="http://sodipodi.sourceforge.net/DTD/sodipodi-0.dtd"
   xmlns="http://www.w3.org/2000/svg"
   xmlns:svg="http://www.w3.org/2000/svg">
  <sodipodi:namedview
     id="namedview2"
     pagecolor="#ffffff"
     bordercolor="#000000"
     borderopacity="0.25"
     inkscape:showpageshadow="2"
     inkscape:pageopacity="0.0"
     inkscape:pagecheckerboard="0"
     inkscape:deskcolor="#d1d1d1"
     inkscape:zoom="1.7357689"
     inkscape:cx="588.5"
     inkscape:cy="201.9278"
     inkscape:window-width="2560"
     inkscape:window-height="1417"
     inkscape:window-x="-8"
     inkscape:window-y="-8"
     inkscape:window-maximized="1"
     inkscape:current-layer="svg2" />
  <defs
     id="defs2" />
  <path
     style="font-size:192px;font-family:Arial;-inkscape-font-specification:Arial;fill:#ffffff;stroke:#ffffff;stroke-width:1.73062"
     d="M 9.3940726,366.996 V 337.79175 L 131.24067,185.44295 c 8.65311,-10.81638 16.87357,-20.22663 24.66136,-28.23075 H 23.184966 V 129.14367 H 193.54305 V 157.2122 L 60.01476,322.21616 45.574892,338.92749 H 197.43695 V 366.996 Z m 288.9597674,0 V 266.24136 L 206.68496,129.14367 h 38.29001 l 46.88903,71.71265 c 8.65311,13.41231 16.71132,26.82462 24.17463,40.23695 7.13882,-12.43885 15.79192,-26.44607 25.95931,-42.02166 l 46.07781,-69.92794 h 36.66756 L 329.82953,266.24136 V 366.996 Z m 310.12457,-121.47739 32.05179,0 0,21.04724 c 0,23.90422 -2.7041,42.88698 -8.11229,56.94827 -5.40819,14.06131 -15.19702,25.52668 -29.36648,34.39612 -14.0613,8.76127 -32.55732,13.1419 -55.48806,13.1419 -22.28175,0 -40.50737,-3.83982 -54.67684,-11.51945 -14.16947,-7.67963 -24.28279,-18.76643 -30.33996,-33.26038 -6.05718,-14.60213 -9.08577,-34.50428 -9.08577,-59.70646 l -0.57612,-18.16667 30.89958,0.57611 1.15223,17.42832 c 1.36286,20.6143 1.89287,35.9104 5.67861,45.75331 3.89389,9.73475 10.49188,17.25213 19.79398,22.55216 9.41025,5.30003 20.87562,7.95005 34.3961,7.95005 23.14707,0 39.64206,-5.24594 49.48498,-15.73783 9.84291,-10.4919 14.76437,-30.66446 14.76437,-60.51769 z M 691.63763,366.996 V 129.14367 h 31.47569 V 338.92749 H 840.25477 V 366.996 Z m 191.45002,0 V 129.14367 h 31.47569 V 366.996 Z m 85.66579,0 V 129.14367 h 31.47566 V 247.09636 L 1118.344,129.14367 h 42.6707 l -99.7812,96.374 104.1618,141.47833 h -41.5349 l -84.6923,-120.38639 -38.939,37.96553 V 366.996 Z"
     id="text2"
     aria-label="ZYULIK"
     sodipodi:nodetypes="cccccccccccccccccccccccccccsscsscsccsccssscccccccccccccccccccccccccc" />
  <g
     inkscape:label="Ionicons_glasses-outline.svg"
     id="g5"
     transform="matrix(0.54400712,0,0,0.49481079,408.82374,41.40553)"
     style="fill:none;fill-opacity:1;stroke:#ffffff;stroke-width:25.699;stroke-dasharray:none;stroke-opacity:1">
    <path
       d="m 224,232 a 32,32 0 0 1 64,0"
       style="fill:none;fill-opacity:1;stroke:#ffffff;stroke-width:25.699;stroke-linecap:round;stroke-linejoin:round;stroke-dasharray:none;stroke-opacity:1"
       id="path3" />
    <line
       x1="448"
       y1="200"
       x2="464"
       y2="200"
       style="fill:none;fill-opacity:1;stroke:#ffffff;stroke-width:25.699;stroke-linecap:round;stroke-linejoin:round;stroke-dasharray:none;stroke-opacity:1"
       id="line3" />
    <line
       x1="64"
       y1="200"
       x2="48"
       y2="200"
       style="fill:none;fill-opacity:1;stroke:#ffffff;stroke-width:25.699;stroke-linecap:round;stroke-linejoin:round;stroke-dasharray:none;stroke-opacity:1"
       id="line4" />
    <path
       d="m 64,200 c 0,96 16,128 80,128 64,0 80,-32 80,-128 0,0 -16,-16 -80,-16 -64,0 -80,16 -80,16 z"
       style="fill:none;fill-opacity:1;stroke:#ffffff;stroke-width:25.699;stroke-linecap:round;stroke-linejoin:round;stroke-dasharray:none;stroke-opacity:1"
       id="path4" />
    <path
       d="m 448,200 c 0,96 -16,128 -80,128 -64,0 -80,-32 -80,-128 0,0 16,-16 80,-16 64,0 80,16 80,16 z"
       style="fill:none;fill-opacity:1;stroke:#ffffff;stroke-width:25.699;stroke-linecap:round;stroke-linejoin:round;stroke-dasharray:none;stroke-opacity:1"
       id="path5" />
  </g>
</svg>
